<svg width="102" height="30" viewBox="0 0 102 30" fill="none" xmlns="http://www.w3.org/2000/svg">
<path d="M53.1 12.24C52.78 11.6533 52.34 11.2067 51.78 10.9C51.22 10.5933 50.5667 10.44 49.82 10.44C48.9933 10.44 48.26 10.6267 47.62 11C46.98 11.3733 46.48 11.9067 46.12 12.6C45.76 13.2933 45.58 14.0933 45.58 15C45.58 15.9333 45.76 16.7467 46.12 17.44C46.4933 18.1333 47.0067 18.6667 47.66 19.04C48.3133 19.4133 49.0733 19.6 49.94 19.6C51.0067 19.6 51.88 19.32 52.56 18.76C53.24 18.1867 53.6867 17.3933 53.9 16.38H49.1V14.24H56.66V16.68C56.4733 17.6533 56.0733 18.5533 55.46 19.38C54.8467 20.2067 54.0533 20.8733 53.08 21.38C52.12 21.8733 51.04 22.12 49.84 22.12C48.4933 22.12 47.2733 21.82 46.18 21.22C45.1 20.6067 44.2467 19.76 43.62 18.68C43.0067 17.6 42.7 16.3733 42.7 15C42.7 13.6267 43.0067 12.4 43.62 11.32C44.2467 10.2267 45.1 9.38 46.18 8.78C47.2733 8.16667 48.4867 7.86 49.82 7.86C51.3933 7.86 52.76 8.24667 53.92 9.02C55.08 9.78 55.88 10.8533 56.32 12.24H53.1ZM67.0916 22L64.0716 17.3L61.3316 22H58.1716L62.5716 14.96L58.1116 8.04H61.3316L64.3516 12.72L67.0716 8.04H70.2316L65.8516 15.06L70.3116 22H67.0916ZM78.9225 22.14C77.6158 22.14 76.4158 21.8333 75.3225 21.22C74.2292 20.6067 73.3625 19.76 72.7225 18.68C72.0825 17.5867 71.7625 16.3533 71.7625 14.98C71.7625 13.62 72.0825 12.4 72.7225 11.32C73.3625 10.2267 74.2292 9.37333 75.3225 8.76C76.4158 8.14667 77.6158 7.84 78.9225 7.84C80.2425 7.84 81.4425 8.14667 82.5225 8.76C83.6158 9.37333 84.4758 10.2267 85.1025 11.32C85.7425 12.4 86.0625 13.62 86.0625 14.98C86.0625 16.3533 85.7425 17.5867 85.1025 18.68C84.4758 19.76 83.6158 20.6067 82.5225 21.22C81.4292 21.8333 80.2292 22.14 78.9225 22.14ZM78.9225 19.64C79.7625 19.64 80.5025 19.4533 81.1425 19.08C81.7825 18.6933 82.2825 18.1467 82.6425 17.44C83.0025 16.7333 83.1825 15.9133 83.1825 14.98C83.1825 14.0467 83.0025 13.2333 82.6425 12.54C82.2825 11.8333 81.7825 11.2933 81.1425 10.92C80.5025 10.5467 79.7625 10.36 78.9225 10.36C78.0825 10.36 77.3358 10.5467 76.6825 10.92C76.0425 11.2933 75.5425 11.8333 75.1825 12.54C74.8225 13.2333 74.6425 14.0467 74.6425 14.98C74.6425 15.9133 74.8225 16.7333 75.1825 17.44C75.5425 18.1467 76.0425 18.6933 76.6825 19.08C77.3358 19.4533 78.0825 19.64 78.9225 19.64ZM100.086 22H97.2856L90.9456 12.42V22H88.1456V8.02H90.9456L97.2856 17.62V8.02H100.086V22Z" fill="#0C243C"/>
<path d="M3.13197 8.74356L20.2828 13.1996C21.0062 13.3875 21.7395 12.9312 21.8907 12.1993L23.7242 3.31367C23.849 2.70964 23.535 2.10019 22.9699 1.85354C19.7072 0.428182 8.89882 -3.27098 2.36043 6.77512C1.87573 7.51923 2.27267 8.52051 3.13197 8.74356Z" fill="#22B07E"/>
<path d="M16.3812 28.3188L11.3422 11.4385C11.1284 10.7222 10.3585 10.3313 9.65391 10.5811L1.06348 13.6278C0.499338 13.8278 0.141959 14.385 0.199395 14.9807C0.523905 18.3518 2.53798 28.9448 15.0299 29.9953C15.9428 30.0719 16.6435 29.1969 16.3812 28.3188Z" fill="#FDBB1F"/>
<path d="M26.7884 7.47993L14.3578 19.9626C13.8303 20.4923 13.8539 21.3554 14.4098 21.8554L21.1862 27.9512C21.631 28.3513 22.2912 28.3995 22.7874 28.0651C25.595 26.1713 33.9436 19.3471 28.9065 7.86762C28.538 7.02874 27.4349 6.83059 26.7884 7.47993Z" fill="#316AFF"/>
</svg>
