<svg width="59" height="16" viewBox="0 0 59 16" fill="none" xmlns="http://www.w3.org/2000/svg">
<path d="M11.1 5.24C10.78 4.65333 10.34 4.20667 9.78 3.9C9.22 3.59333 8.56667 3.44 7.82 3.44C6.99333 3.44 6.26 3.62667 5.62 4C4.98 4.37333 4.48 4.90667 4.12 5.6C3.76 6.29333 3.58 7.09333 3.58 8C3.58 8.93333 3.76 9.74667 4.12 10.44C4.49333 11.1333 5.00667 11.6667 5.66 12.04C6.31333 12.4133 7.07333 12.6 7.94 12.6C9.00667 12.6 9.88 12.32 10.56 11.76C11.24 11.1867 11.6867 10.3933 11.9 9.38H7.1V7.24H14.66V9.68C14.4733 10.6533 14.0733 11.5533 13.46 12.38C12.8467 13.2067 12.0533 13.8733 11.08 14.38C10.12 14.8733 9.04 15.12 7.84 15.12C6.49333 15.12 5.27333 14.82 4.18 14.22C3.1 13.6067 2.24667 12.76 1.62 11.68C1.00667 10.6 0.7 9.37333 0.7 8C0.7 6.62667 1.00667 5.4 1.62 4.32C2.24667 3.22667 3.1 2.38 4.18 1.78C5.27333 1.16667 6.48667 0.86 7.82 0.86C9.39333 0.86 10.76 1.24667 11.92 2.02C13.08 2.78 13.88 3.85333 14.32 5.24H11.1ZM25.0916 15L22.0716 10.3L19.3316 15H16.1716L20.5716 7.96L16.1116 1.04H19.3316L22.3516 5.72L25.0716 1.04H28.2316L23.8516 8.06L28.3116 15H25.0916ZM36.9225 15.14C35.6158 15.14 34.4158 14.8333 33.3225 14.22C32.2292 13.6067 31.3625 12.76 30.7225 11.68C30.0825 10.5867 29.7625 9.35333 29.7625 7.98C29.7625 6.62 30.0825 5.4 30.7225 4.32C31.3625 3.22667 32.2292 2.37333 33.3225 1.76C34.4158 1.14667 35.6158 0.84 36.9225 0.84C38.2425 0.84 39.4425 1.14667 40.5225 1.76C41.6158 2.37333 42.4758 3.22667 43.1025 4.32C43.7425 5.4 44.0625 6.62 44.0625 7.98C44.0625 9.35333 43.7425 10.5867 43.1025 11.68C42.4758 12.76 41.6158 13.6067 40.5225 14.22C39.4292 14.8333 38.2292 15.14 36.9225 15.14ZM36.9225 12.64C37.7625 12.64 38.5025 12.4533 39.1425 12.08C39.7825 11.6933 40.2825 11.1467 40.6425 10.44C41.0025 9.73333 41.1825 8.91333 41.1825 7.98C41.1825 7.04667 41.0025 6.23333 40.6425 5.54C40.2825 4.83333 39.7825 4.29333 39.1425 3.92C38.5025 3.54667 37.7625 3.36 36.9225 3.36C36.0825 3.36 35.3358 3.54667 34.6825 3.92C34.0425 4.29333 33.5425 4.83333 33.1825 5.54C32.8225 6.23333 32.6425 7.04667 32.6425 7.98C32.6425 8.91333 32.8225 9.73333 33.1825 10.44C33.5425 11.1467 34.0425 11.6933 34.6825 12.08C35.3358 12.4533 36.0825 12.64 36.9225 12.64ZM58.0856 15H55.2856L48.9456 5.42V15H46.1456V1.02H48.9456L55.2856 10.62V1.02H58.0856V15Z" fill="white"/>
</svg>
