<svg width="31" height="30" viewBox="0 0 31 30" fill="none" xmlns="http://www.w3.org/2000/svg">
<path d="M3.1316 8.74356L20.2825 13.1996C21.0058 13.3875 21.7391 12.9312 21.8903 12.1993L23.7238 3.31367C23.8486 2.70964 23.5346 2.10019 22.9695 1.85354C19.7068 0.428182 8.89845 -3.27098 2.36006 6.77512C1.87537 7.51923 2.2723 8.52051 3.1316 8.74356Z" fill="#22B07E"/>
<path d="M16.381 28.3188L11.342 11.4385C11.1282 10.7222 10.3582 10.3313 9.65367 10.5811L1.06324 13.6278C0.499094 13.8278 0.141715 14.385 0.199151 14.9807C0.523661 18.3518 2.53774 28.9448 15.0296 29.9953C15.9425 30.0719 16.6432 29.1969 16.381 28.3188Z" fill="#FDBB1F"/>
<path d="M26.7882 7.47993L14.3575 19.9626C13.8301 20.4923 13.8537 21.3554 14.4095 21.8554L21.186 27.9512C21.6308 28.3513 22.291 28.3995 22.7872 28.0651C25.5948 26.1713 33.9434 19.3471 28.9063 7.86762C28.5377 7.02874 27.4346 6.83059 26.7882 7.47993Z" fill="#316AFF"/>
</svg>
