<svg width="102" height="30" viewBox="0 0 102 30" fill="none" xmlns="http://www.w3.org/2000/svg">
<path d="M52.9066 12.24C52.5866 11.6533 52.1466 11.2067 51.5866 10.9C51.0266 10.5933 50.3733 10.44 49.6266 10.44C48.8 10.44 48.0666 10.6267 47.4266 11C46.7866 11.3733 46.2866 11.9067 45.9266 12.6C45.5666 13.2933 45.3866 14.0933 45.3866 15C45.3866 15.9333 45.5666 16.7467 45.9266 17.44C46.3 18.1333 46.8133 18.6667 47.4666 19.04C48.12 19.4133 48.88 19.6 49.7466 19.6C50.8133 19.6 51.6866 19.32 52.3666 18.76C53.0466 18.1867 53.4933 17.3933 53.7066 16.38H48.9066V14.24H56.4666V16.68C56.28 17.6533 55.88 18.5533 55.2666 19.38C54.6533 20.2067 53.86 20.8733 52.8866 21.38C51.9266 21.8733 50.8466 22.12 49.6466 22.12C48.3 22.12 47.08 21.82 45.9866 21.22C44.9066 20.6067 44.0533 19.76 43.4266 18.68C42.8133 17.6 42.5066 16.3733 42.5066 15C42.5066 13.6267 42.8133 12.4 43.4266 11.32C44.0533 10.2267 44.9066 9.38 45.9866 8.78C47.08 8.16667 48.2933 7.86 49.6266 7.86C51.2 7.86 52.5666 8.24667 53.7266 9.02C54.8866 9.78 55.6866 10.8533 56.1266 12.24H52.9066ZM66.8982 22L63.8782 17.3L61.1382 22H57.9782L62.3782 14.96L57.9182 8.04H61.1382L64.1582 12.72L66.8782 8.04H70.0382L65.6582 15.06L70.1182 22H66.8982ZM78.7291 22.14C77.4225 22.14 76.2225 21.8333 75.1291 21.22C74.0358 20.6067 73.1691 19.76 72.5291 18.68C71.8891 17.5867 71.5691 16.3533 71.5691 14.98C71.5691 13.62 71.8891 12.4 72.5291 11.32C73.1691 10.2267 74.0358 9.37333 75.1291 8.76C76.2225 8.14667 77.4225 7.84 78.7291 7.84C80.0491 7.84 81.2491 8.14667 82.3291 8.76C83.4225 9.37333 84.2825 10.2267 84.9091 11.32C85.5491 12.4 85.8691 13.62 85.8691 14.98C85.8691 16.3533 85.5491 17.5867 84.9091 18.68C84.2825 19.76 83.4225 20.6067 82.3291 21.22C81.2358 21.8333 80.0358 22.14 78.7291 22.14ZM78.7291 19.64C79.5691 19.64 80.3091 19.4533 80.9491 19.08C81.5891 18.6933 82.0891 18.1467 82.4491 17.44C82.8091 16.7333 82.9891 15.9133 82.9891 14.98C82.9891 14.0467 82.8091 13.2333 82.4491 12.54C82.0891 11.8333 81.5891 11.2933 80.9491 10.92C80.3091 10.5467 79.5691 10.36 78.7291 10.36C77.8891 10.36 77.1425 10.5467 76.4891 10.92C75.8491 11.2933 75.3491 11.8333 74.9891 12.54C74.6291 13.2333 74.4491 14.0467 74.4491 14.98C74.4491 15.9133 74.6291 16.7333 74.9891 17.44C75.3491 18.1467 75.8491 18.6933 76.4891 19.08C77.1425 19.4533 77.8891 19.64 78.7291 19.64ZM99.8923 22H97.0923L90.7523 12.42V22H87.9523V8.02H90.7523L97.0923 17.62V8.02H99.8923V22Z" fill="white"/>
<path d="M2.93861 8.74356L20.0895 13.1996C20.8128 13.3875 21.5461 12.9312 21.6974 12.1993L23.5308 3.31367C23.6556 2.70964 23.3416 2.10019 22.7765 1.85354C19.5139 0.428182 8.70546 -3.27098 2.16707 6.77512C1.68237 7.51923 2.07931 8.52051 2.93861 8.74356Z" fill="#22B07E"/>
<path d="M16.1878 28.3188L11.1488 11.4385C10.9351 10.7222 10.1651 10.3313 9.46055 10.5811L0.870123 13.6278C0.305979 13.8278 -0.0514002 14.385 0.00603531 14.9807C0.330546 18.3518 2.34462 28.9448 14.8365 29.9953C15.7494 30.0719 16.4501 29.1969 16.1878 28.3188Z" fill="#FDBB1F"/>
<path d="M26.5951 7.47993L14.1644 19.9626C13.637 20.4923 13.6606 21.3554 14.2164 21.8554L20.9929 27.9512C21.4377 28.3513 22.0979 28.3995 22.594 28.0651C25.4017 26.1713 33.7502 19.3471 28.7131 7.86762C28.3446 7.02874 27.2415 6.83059 26.5951 7.47993Z" fill="#316AFF"/>
</svg>
