<svg width="58" height="16" viewBox="0 0 58 16" fill="none" xmlns="http://www.w3.org/2000/svg">
<path d="M10.9066 5.24C10.5866 4.65333 10.1466 4.20667 9.58664 3.9C9.02664 3.59333 8.37331 3.44 7.62664 3.44C6.79997 3.44 6.06664 3.62667 5.42664 4C4.78664 4.37333 4.28664 4.90667 3.92664 5.6C3.56664 6.29333 3.38664 7.09333 3.38664 8C3.38664 8.93333 3.56664 9.74667 3.92664 10.44C4.29997 11.1333 4.81331 11.6667 5.46664 12.04C6.11997 12.4133 6.87997 12.6 7.74664 12.6C8.81331 12.6 9.68664 12.32 10.3666 11.76C11.0466 11.1867 11.4933 10.3933 11.7066 9.38H6.90664V7.24H14.4666V9.68C14.28 10.6533 13.88 11.5533 13.2666 12.38C12.6533 13.2067 11.86 13.8733 10.8866 14.38C9.92664 14.8733 8.84664 15.12 7.64664 15.12C6.29997 15.12 5.07997 14.82 3.98664 14.22C2.90664 13.6067 2.05331 12.76 1.42664 11.68C0.813307 10.6 0.506641 9.37333 0.506641 8C0.506641 6.62667 0.813307 5.4 1.42664 4.32C2.05331 3.22667 2.90664 2.38 3.98664 1.78C5.07997 1.16667 6.29331 0.86 7.62664 0.86C9.19997 0.86 10.5666 1.24667 11.7266 2.02C12.8866 2.78 13.6866 3.85333 14.1266 5.24H10.9066ZM24.8982 15L21.8782 10.3L19.1382 15H15.9782L20.3782 7.96L15.9182 1.04H19.1382L22.1582 5.72L24.8782 1.04H28.0382L23.6582 8.06L28.1182 15H24.8982ZM36.7291 15.14C35.4225 15.14 34.2225 14.8333 33.1291 14.22C32.0358 13.6067 31.1691 12.76 30.5291 11.68C29.8891 10.5867 29.5691 9.35333 29.5691 7.98C29.5691 6.62 29.8891 5.4 30.5291 4.32C31.1691 3.22667 32.0358 2.37333 33.1291 1.76C34.2225 1.14667 35.4225 0.84 36.7291 0.84C38.0491 0.84 39.2491 1.14667 40.3291 1.76C41.4225 2.37333 42.2825 3.22667 42.9091 4.32C43.5491 5.4 43.8691 6.62 43.8691 7.98C43.8691 9.35333 43.5491 10.5867 42.9091 11.68C42.2825 12.76 41.4225 13.6067 40.3291 14.22C39.2358 14.8333 38.0358 15.14 36.7291 15.14ZM36.7291 12.64C37.5691 12.64 38.3091 12.4533 38.9491 12.08C39.5891 11.6933 40.0891 11.1467 40.4491 10.44C40.8091 9.73333 40.9891 8.91333 40.9891 7.98C40.9891 7.04667 40.8091 6.23333 40.4491 5.54C40.0891 4.83333 39.5891 4.29333 38.9491 3.92C38.3091 3.54667 37.5691 3.36 36.7291 3.36C35.8891 3.36 35.1425 3.54667 34.4891 3.92C33.8491 4.29333 33.3491 4.83333 32.9891 5.54C32.6291 6.23333 32.4491 7.04667 32.4491 7.98C32.4491 8.91333 32.6291 9.73333 32.9891 10.44C33.3491 11.1467 33.8491 11.6933 34.4891 12.08C35.1425 12.4533 35.8891 12.64 36.7291 12.64ZM57.8923 15H55.0923L48.7523 5.42V15H45.9523V1.02H48.7523L55.0923 10.62V1.02H57.8923V15Z" fill="#0C243C"/>
</svg>
