<svg width="50" height="50" viewBox="0 0 50 50" fill="none" xmlns="http://www.w3.org/2000/svg">
<rect width="50" height="50" fill="#0C243C"/>
<path d="M25.0352 25C25.0352 22.2386 27.2737 20 30.0351 20C32.7965 20 35.0351 22.2386 35.0351 25C35.0351 27.7614 32.7965 30 30.0351 30C27.2737 30 25.0352 27.7614 25.0352 25Z" fill="#00BCFF"/>
<path d="M15.0352 35C15.0352 32.2386 17.2737 30 20.0351 30L22.6997 28.5933L25.0351 30V35C25.0351 37.7615 22.7965 40 20.0351 40C17.2737 40 15.0352 37.7614 15.0352 35Z" fill="#00CF7F"/>
<path d="M25.0352 10L22.3145 14.7268L25.0352 20H29.965C32.7265 20 34.965 17.7614 34.965 15C34.965 12.2386 32.7264 10 29.965 10H25.0352Z" fill="#FF7361"/>
<path d="M14.9648 15C14.9648 17.7614 17.2034 20 19.9648 20L22.6172 21.0244L25.0349 20V10H19.9648C17.2034 10 14.9648 12.2386 14.9648 15Z" fill="#FF4D12"/>
<path d="M15.0352 25C15.0352 27.7615 17.2737 30 20.0351 30H25.0351V20H20.0351C17.2737 20 15.0352 22.2386 15.0352 25Z" fill="#B659FF"/>
</svg>
