<svg width="50" height="50" viewBox="0 0 50 50" fill="none" xmlns="http://www.w3.org/2000/svg">
<rect width="50" height="50" rx="6" fill="#D5E5FF"/>
<g clip-path="url(#clip0_383_2052)">
<path d="M38.3932 20.5323C38.0549 20.2146 37.6063 20.041 37.1423 20.0483C36.6783 20.0557 36.2354 20.2433 35.9074 20.5715L28.2074 28.2734C27.8726 28.6082 27.6846 29.0624 27.6846 29.5359C27.6846 30.0094 27.8726 30.4635 28.2074 30.7984L46.4628 49.0591C47.536 48.4347 48.4272 47.5404 49.0478 46.4649C49.6684 45.3895 49.9968 44.1704 50.0003 42.9288V31.4412L38.3932 20.5323Z" fill="#4071F7"/>
<path d="M30.3572 19.7143C33.3158 19.7143 35.7143 17.3158 35.7143 14.3572C35.7143 11.3985 33.3158 9 30.3572 9C27.3985 9 25 11.3985 25 14.3572C25 17.3158 27.3985 19.7143 30.3572 19.7143Z" fill="#5392F9"/>
<path d="M20.9054 18.4519C20.5642 18.1292 20.1125 17.9495 19.6429 17.9495C19.1733 17.9495 18.7216 18.1292 18.3804 18.4519L0 36.8323V42.9287C0 44.8231 0.752551 46.6399 2.0921 47.9795C3.43165 49.319 5.24847 50.0716 7.14288 50.0716H42.8573C44.0989 50.068 45.318 49.7396 46.3935 49.1191C47.4689 48.4985 48.3633 47.6073 48.9877 46.5341L20.9054 18.4519Z" fill="#5392F9"/>
</g>
<defs>
<clipPath id="clip0_383_2052">
<rect width="50" height="50" fill="white"/>
</clipPath>
</defs>
</svg>
