<svg width="50" height="50" viewBox="0 0 50 50" fill="none" xmlns="http://www.w3.org/2000/svg">
<rect width="50" height="50" fill="white"/>
<path d="M17.5 10C16.4688 10 15.625 10.8438 15.625 11.875V38.125C15.625 39.1562 16.4688 40 17.5 40H36.25C37.2812 40 38.125 39.1562 38.125 38.125V17.5L30.625 10H17.5Z" fill="#E2E5E7"/>
<path d="M32.5 17.5H38.125L30.625 10V15.625C30.625 16.6562 31.4688 17.5 32.5 17.5Z" fill="#B0B7BD"/>
<path d="M38.125 23.125L32.5 17.5H38.125V23.125Z" fill="#CAD1D8"/>
<path d="M34.375 34.375C34.375 34.8906 33.9531 35.3125 33.4375 35.3125H12.8125C12.2969 35.3125 11.875 34.8906 11.875 34.375V25C11.875 24.4844 12.2969 24.0625 12.8125 24.0625H33.4375C33.9531 24.0625 34.375 24.4844 34.375 25V34.375Z" fill="#F15642"/>
<path d="M15.9619 27.7629C15.9619 27.5154 16.1569 27.2454 16.471 27.2454H18.2025C19.1775 27.2454 20.055 27.8979 20.055 29.1485C20.055 30.3335 19.1775 30.9935 18.2025 30.9935H16.951V31.9835C16.951 32.3135 16.741 32.5 16.471 32.5C16.2235 32.5 15.9619 32.3135 15.9619 31.9835V27.7629ZM16.951 28.1894V30.0569H18.2025C18.705 30.0569 19.1025 29.6135 19.1025 29.1485C19.1025 28.6244 18.705 28.1894 18.2025 28.1894H16.951Z" fill="white"/>
<path d="M21.5234 32.4999C21.2759 32.4999 21.0059 32.3649 21.0059 32.0359V27.7777C21.0059 27.5087 21.2759 27.3127 21.5234 27.3127H23.2399C26.6655 27.3127 26.5905 32.4999 23.3074 32.4999H21.5234ZM21.9959 28.2277V31.5859H23.2399C25.264 31.5859 25.354 28.2277 23.2399 28.2277H21.9959Z" fill="white"/>
<path d="M27.8058 28.2879V29.4795H29.7174C29.9874 29.4795 30.2574 29.7495 30.2574 30.0111C30.2574 30.2586 29.9874 30.4611 29.7174 30.4611H27.8058V32.0351C27.8058 32.2976 27.6193 32.4992 27.3568 32.4992C27.0268 32.4992 26.8252 32.2976 26.8252 32.0351V27.777C26.8252 27.5079 27.0277 27.312 27.3568 27.312H29.9883C30.3183 27.312 30.5133 27.5079 30.5133 27.777C30.5133 28.017 30.3183 28.287 29.9883 28.287H27.8058V28.2879Z" fill="white"/>
<path d="M33.4375 35.3125H15.625V36.25H33.4375C33.9531 36.25 34.375 35.8281 34.375 35.3125V34.375C34.375 34.8906 33.9531 35.3125 33.4375 35.3125Z" fill="#CAD1D8"/>
</svg>
