<svg width="50" height="50" viewBox="0 0 50 50" fill="none" xmlns="http://www.w3.org/2000/svg">
<g clip-path="url(#clip0_383_2071)">
<rect width="50" height="50" fill="#CED2DC"/>
<path d="M41 9H9C8.73478 9 8.48043 8.89464 8.29289 8.70711C8.10536 8.51957 8 8.26522 8 8C8 7.73478 8.10536 7.48043 8.29289 7.29289C8.48043 7.10536 8.73478 7 9 7H41C41.2652 7 41.5196 7.10536 41.7071 7.29289C41.8946 7.48043 42 7.73478 42 8C42 8.26522 41.8946 8.51957 41.7071 8.70711C41.5196 8.89464 41.2652 9 41 9Z" fill="#798291"/>
<path d="M41 14H9C8.73478 14 8.48043 13.8946 8.29289 13.7071C8.10536 13.5196 8 13.2652 8 13C8 12.7348 8.10536 12.4804 8.29289 12.2929C8.48043 12.1054 8.73478 12 9 12H41C41.2652 12 41.5196 12.1054 41.7071 12.2929C41.8946 12.4804 42 12.7348 42 13C42 13.2652 41.8946 13.5196 41.7071 13.7071C41.5196 13.8946 41.2652 14 41 14Z" fill="#798291"/>
<path d="M41 19H9C8.73478 19 8.48043 18.8946 8.29289 18.7071C8.10536 18.5196 8 18.2652 8 18C8 17.7348 8.10536 17.4804 8.29289 17.2929C8.48043 17.1054 8.73478 17 9 17H41C41.2652 17 41.5196 17.1054 41.7071 17.2929C41.8946 17.4804 42 17.7348 42 18C42 18.2652 41.8946 18.5196 41.7071 18.7071C41.5196 18.8946 41.2652 19 41 19Z" fill="#798291"/>
<path d="M24 24H9C8.73478 24 8.48043 23.8946 8.29289 23.7071C8.10536 23.5196 8 23.2652 8 23C8 22.7348 8.10536 22.4804 8.29289 22.2929C8.48043 22.1054 8.73478 22 9 22H24C24.2652 22 24.5196 22.1054 24.7071 22.2929C24.8946 22.4804 25 22.7348 25 23C25 23.2652 24.8946 23.5196 24.7071 23.7071C24.5196 23.8946 24.2652 24 24 24Z" fill="#798291"/>
<path d="M-3 30H37C37.5304 30 38.0391 30.2107 38.4142 30.5858C38.7893 30.9609 39 31.4696 39 32V44C39 44.5304 38.7893 45.0391 38.4142 45.4142C38.0391 45.7893 37.5304 46 37 46H-3V30Z" fill="#00B993"/>
<path d="M35 33H29C28.7348 33 28.4804 33.1054 28.2929 33.2929C28.1054 33.4804 28 33.7348 28 34C28 34.2652 28.1054 34.5196 28.2929 34.7071C28.4804 34.8946 28.7348 35 29 35H31V42C31 42.2652 31.1054 42.5196 31.2929 42.7071C31.4804 42.8946 31.7348 43 32 43C32.2652 43 32.5196 42.8946 32.7071 42.7071C32.8946 42.5196 33 42.2652 33 42V35H35C35.2652 35 35.5196 34.8946 35.7071 34.7071C35.8946 34.5196 36 34.2652 36 34C36 33.7348 35.8946 33.4804 35.7071 33.2929C35.5196 33.1054 35.2652 33 35 33Z" fill="white"/>
<path d="M15 33H9C8.73478 33 8.48043 33.1054 8.29289 33.2929C8.10536 33.4804 8 33.7348 8 34C8 34.2652 8.10536 34.5196 8.29289 34.7071C8.48043 34.8946 8.73478 35 9 35H11V42C11 42.2652 11.1054 42.5196 11.2929 42.7071C11.4804 42.8946 11.7348 43 12 43C12.2652 43 12.5196 42.8946 12.7071 42.7071C12.8946 42.5196 13 42.2652 13 42V35H15C15.2652 35 15.5196 34.8946 15.7071 34.7071C15.8946 34.5196 16 34.2652 16 34C16 33.7348 15.8946 33.4804 15.7071 33.2929C15.5196 33.1054 15.2652 33 15 33Z" fill="white"/>
<path d="M25.6 33.2C25.3878 33.0409 25.1211 32.9725 24.8586 33.0101C24.596 33.0476 24.3591 33.1878 24.2 33.4L22 36.334L19.8 33.4C19.7212 33.2949 19.6225 33.2064 19.5095 33.1395C19.3965 33.0726 19.2714 33.0286 19.1414 33.0101C19.0114 32.9915 18.879 32.9987 18.7518 33.0313C18.6246 33.0639 18.5051 33.1212 18.4 33.2C18.2949 33.2788 18.2064 33.3775 18.1395 33.4905C18.0726 33.6035 18.0286 33.7286 18.0101 33.8586C17.9915 33.9886 17.9987 34.121 18.0313 34.2482C18.0639 34.3754 18.1212 34.4949 18.2 34.6L20.75 38L18.2 41.4C18.1212 41.5051 18.0639 41.6246 18.0313 41.7518C17.9987 41.879 17.9915 42.0114 18.0101 42.1414C18.0286 42.2714 18.0726 42.3965 18.1395 42.5095C18.2064 42.6225 18.2949 42.7212 18.4 42.8C18.5051 42.8788 18.6246 42.9361 18.7518 42.9687C18.879 43.0013 19.0114 43.0085 19.1414 42.99C19.404 42.9524 19.6409 42.8122 19.8 42.6L22 39.666L24.2 42.6C24.3591 42.8122 24.596 42.9524 24.8586 42.99C25.1211 43.0275 25.3878 42.9591 25.6 42.8C25.8122 42.6409 25.9524 42.404 25.99 42.1414C26.0275 41.8789 25.9591 41.6122 25.8 41.4L23.25 38L25.8 34.6C25.9591 34.3878 26.0275 34.1211 25.99 33.8586C25.9524 33.596 25.8122 33.3591 25.6 33.2Z" fill="white"/>
</g>
<defs>
<clipPath id="clip0_383_2071">
<rect width="50" height="50" fill="white"/>
</clipPath>
</defs>
</svg>
