<svg width="123" height="168" viewBox="0 0 123 168" fill="none" xmlns="http://www.w3.org/2000/svg">
<path d="M61.7327 90.7466C60.5232 92.7271 59.5344 96.248 58.9823 100.098C58.5961 102.793 57.8816 103.07 55.2419 104.279C52.601 105.489 51.9953 107.799 53.4261 109.119C55.4639 111 55.4614 109.973 55.7363 112.091C55.9205 113.503 55.5374 114.631 57.4377 114.022C58.1839 113.784 59.7266 112.865 59.9461 113.034C60.6041 113.543 60.4022 115.467 57.8938 116.911C56.9792 117.438 56.2215 117.367 57.0297 121.552C57.7339 125.198 62.1456 125.76 66.519 124.935C70.8924 124.111 69.9845 127.411 71.7175 132.114C73.4506 136.818 73.6981 139.458 71.3052 141.439C68.9118 143.419 67.0139 152.908 67.262 155.219C67.5095 157.529 75.7613 162.315 82.7751 154.558C86.5702 149.277 90.8615 139.128 90.8615 139.128C90.8615 139.128 86.406 132.94 86.4887 126.916C86.5708 120.893 89.129 98.2005 80.7951 91.7645C72.4594 85.3279 62.5578 89.1521 61.7327 90.7466Z" fill="white"/>
<path d="M74.1651 159.111C76.4004 159.111 79.748 158.357 82.9988 154.761C86.7921 149.486 91.0968 139.347 91.14 139.246C91.1813 139.148 91.1686 139.036 91.1065 138.949C91.0627 138.888 86.7106 132.77 86.7909 126.919C86.8019 126.087 86.8627 124.907 86.932 123.54C87.3698 114.978 88.2801 97.1619 80.9788 91.5231C77.0529 88.4912 72.952 87.8545 70.2028 87.8545C65.7363 87.8545 62.0428 89.4848 61.4615 90.6067C60.2805 92.5392 59.2626 95.9895 58.68 100.055C58.3255 102.533 57.7387 102.801 55.2687 103.932L55.1136 104.003C53.5842 104.704 52.5949 105.809 52.3997 107.034C52.2604 107.908 52.5511 108.728 53.2182 109.343C53.9418 110.012 54.4198 110.325 54.7366 110.533C55.2614 110.877 55.2711 110.884 55.4334 112.129C55.4669 112.387 55.4809 112.635 55.4936 112.863C55.549 113.823 55.6384 114.918 57.5289 114.311C57.8445 114.21 58.2781 114.003 58.6977 113.802C59.0638 113.627 59.6001 113.37 59.8111 113.324C59.9212 113.451 59.9759 113.672 59.9583 113.935C59.909 114.657 59.3009 115.748 57.7405 116.646C57.6603 116.693 57.5806 116.735 57.5034 116.775C56.5134 117.293 55.9886 117.774 56.7299 121.609C57.2231 124.164 59.5216 125.571 63.2018 125.571C64.2514 125.571 65.3861 125.457 66.5737 125.233C67.0006 125.152 67.3843 125.112 67.7145 125.112C69.5077 125.112 69.8458 126.223 70.4387 128.736C70.6813 129.765 70.9568 130.932 71.4305 132.218C73.2712 137.214 73.1903 139.481 71.11 141.203C68.615 143.267 66.6965 152.81 66.958 155.25C67.1252 156.805 70.2247 159.111 74.1651 159.111ZM90.5143 139.163C89.9578 140.459 86.0052 149.541 82.527 154.38C79.4464 157.784 76.2776 158.503 74.1651 158.503C70.4947 158.503 67.6883 156.351 67.563 155.185C67.3241 152.952 69.2396 143.54 71.498 141.672C74.1158 139.505 73.6944 136.603 72.0015 132.008C71.5406 130.757 71.27 129.61 71.031 128.597C70.4703 126.221 70.0653 124.504 67.7151 124.504C67.3417 124.504 66.9319 124.547 66.4618 124.635C65.3113 124.853 64.2143 124.963 63.2024 124.963C60.8278 124.963 57.881 124.361 57.3277 121.494C56.6369 117.916 57.0941 117.677 57.7868 117.314C57.8707 117.27 57.957 117.225 58.0452 117.174C59.5466 116.31 60.4891 115.115 60.5657 113.977C60.6004 113.465 60.4423 113.034 60.1316 112.794C59.8677 112.589 59.4085 112.789 58.4362 113.254C58.0349 113.446 57.6201 113.644 57.3447 113.733C57.0254 113.835 56.7682 113.887 56.5809 113.887C56.2209 113.887 56.154 113.738 56.1017 112.829C56.0884 112.587 56.0725 112.324 56.0373 112.051C55.8542 110.642 55.7825 110.491 55.0716 110.024C54.7718 109.827 54.3188 109.529 53.6323 108.896C53.1197 108.423 52.8959 107.795 53.0017 107.129C53.1616 106.123 54.0464 105.161 55.3684 104.555L55.5228 104.485C58.0349 103.334 58.8813 102.947 59.2833 100.141C59.8543 96.1543 60.8418 92.7873 61.9917 90.9047C62.3772 90.161 65.6202 88.462 70.2034 88.462C72.8577 88.462 76.817 89.0767 80.6072 92.0035C87.6568 97.4477 86.7575 115.05 86.3251 123.509C86.2552 124.881 86.1944 126.067 86.1828 126.91C86.1062 132.534 89.8344 138.182 90.5143 139.163Z" fill="black"/>
<path d="M86.7064 195.925C85.1661 196.586 70.6437 197.355 70.6437 197.355C70.6437 197.355 64.2624 177.003 66.9027 153.679C72.184 158.299 78.125 157.198 84.0661 152.358C80.3257 163.8 82.0849 187.343 86.7064 195.925Z" fill="black"/>
<path d="M64.3627 105.627C64.0416 106.656 63.3052 107.343 62.7184 107.16C62.1316 106.977 61.9176 105.993 62.238 104.964C62.5591 103.935 63.2961 103.248 63.8811 103.432C64.4679 103.616 64.6844 104.598 64.3627 105.627Z" fill="black"/>
<path d="M63.3745 103.925C63.4025 103.925 63.4317 103.921 63.4603 103.913C63.6214 103.866 63.7138 103.696 63.6658 103.535L63.1155 101.665C63.068 101.504 62.8996 101.411 62.7378 101.459C62.5767 101.507 62.4849 101.676 62.5323 101.837L63.0826 103.707C63.1215 103.839 63.2426 103.925 63.3745 103.925Z" fill="black"/>
<path d="M78.0149 166C79.7133 153.473 85.3139 145.185 90.268 137.508C91.0281 136.329 91.7304 136.498 92.0546 136.562C94.4237 137.031 97.0664 138.144 96.389 139.595C96.2455 139.902 96.0248 140.217 95.7499 140.569C96.7776 140.776 98.0078 141.034 99.469 141.356C104.971 142.565 108.375 144.741 111.786 148.152C115.197 151.562 132.637 172.709 137.478 178.1C131.096 190.423 120.147 192.238 120.147 192.238C120.147 192.238 110.14 182.172 103.87 174.47C104.09 176.01 104.859 190.314 107.06 195.925C103.173 198.179 92.3708 198.071 86.3628 197.814C85.3765 198.719 81.5352 197.904 81.5352 197.904C81.5352 197.904 76.2551 178.982 78.0149 166Z" fill="#316AFF"/>
<path d="M96.5538 94.1567C99.4417 95.2294 102.66 97.8691 104.393 109.174C105.231 114.64 107.259 120.51 106.877 126.085C106.52 131.303 102 132.726 97.3936 133.647C93.3352 134.459 77.5613 138.22 76.5665 131.428C75.4062 123.505 87.8952 119.526 86.1038 112.172C85.7395 110.677 84.2381 108.82 82.6924 108.474C80.7197 108.032 80.1329 109.718 78.5993 110.752C76.7306 112.012 75.6118 111.276 74.4892 109.385C73.4281 107.597 73.8258 104.734 73.9936 102.727C74.2138 100.098 74.5257 99.148 72.2448 98.3951C69.1605 97.3784 66.519 95.289 69.4883 91.7633C65.5278 96.4657 63.5472 95.7238 60.3292 93.6605C57.1112 91.5973 56.9464 89.6994 58.1839 86.1518C59.4219 82.6036 63.217 77.1575 69.9012 77.9827C76.5847 78.8079 75.9249 80.623 83.9286 82.2734C91.9329 83.925 97.0488 86.3178 96.5538 94.1567Z" fill="black"/>
<path d="M66.6832 100.319C66.7172 100.319 66.7513 100.314 66.7853 100.302C66.9434 100.245 67.0261 100.072 66.9696 99.9129C66.7537 99.3079 65.5333 96.2601 62.702 95.6745C62.5378 95.6417 62.3767 95.7463 62.3426 95.9111C62.3086 96.0753 62.4144 96.2364 62.5792 96.2705C65.0918 96.7898 66.2003 99.5663 66.3974 100.118C66.4411 100.241 66.5585 100.319 66.6832 100.319Z" fill="black"/>
<path d="M86.5963 197.549C86.6024 197.549 86.6091 197.549 86.6152 197.548C86.783 197.537 86.9101 197.393 86.8998 197.226C86.8833 196.961 86.8274 196.241 86.7459 195.193C86.2698 189.076 85.0043 172.828 85.4683 169.117C85.9542 165.232 84.9016 164.259 83.3078 162.786C83.1083 162.602 82.8991 162.408 82.6814 162.199C83.4659 161.699 85.5261 160.389 87.0852 159.437C88.7137 158.442 89.0725 157.092 90.0296 153.48C90.3154 152.403 90.6395 151.182 91.0694 149.691C92.3762 145.153 94.2376 142.892 95.4696 141.396C95.7718 141.029 96.0327 140.712 96.2504 140.408C96.3483 140.271 96.3167 140.082 96.1798 139.984C96.0424 139.886 95.8527 139.918 95.7554 140.054C95.5499 140.342 95.2951 140.651 95.0001 141.01C93.7365 142.544 91.8265 144.863 90.4851 149.522C90.0533 151.02 89.7146 152.298 89.4422 153.325C88.53 156.764 88.1883 158.051 86.7684 158.918C84.8079 160.117 82.0593 161.874 82.032 161.893C81.9547 161.942 81.9037 162.025 81.8933 162.116C81.8836 162.207 81.9158 162.298 81.9803 162.363C82.302 162.685 82.6084 162.968 82.8942 163.233C84.4528 164.673 85.3114 165.467 84.8645 169.042C84.3926 172.814 85.6611 189.107 86.139 195.24C86.2205 196.284 86.2765 197.001 86.2923 197.264C86.3032 197.425 86.4364 197.549 86.5963 197.549Z" fill="white"/>
<path d="M44.129 157.747L46.4398 164.568C46.4398 164.568 51.9406 154.557 55.4614 150.157C58.7518 146.043 63.4821 143.469 67.2304 142.071C69.7589 137.886 73.3314 137.282 73.3314 137.282C73.3314 137.282 73.6148 138.273 73.0912 139.526C72.5683 140.78 66.9039 150.596 68.2234 166.219C69.543 181.842 74.0544 197.355 74.0544 197.355H70.6436C70.6436 197.355 70.6175 197.268 70.5689 197.109C68.0027 197.439 62.778 197.965 62.6126 196.805C62.3931 195.265 59.4213 182.942 57.6615 179.091C52.3802 188.883 47.4808 190.88 40.3917 187.903C35.3239 185.774 31.1469 168.75 30.5972 162.039C30.4871 161.928 44.129 157.747 44.129 157.747Z" fill="#316AFF"/>
<path d="M70.6436 197.659C70.6728 197.659 70.7026 197.655 70.7324 197.646C70.893 197.597 70.9836 197.427 70.9343 197.266C70.8662 197.043 64.1054 174.895 63.1288 170.663C62.1249 166.31 62.1565 165.787 62.8114 164.508C63.6348 162.901 64.3408 161.489 64.3408 161.489C64.4113 161.348 64.3627 161.177 64.2283 161.094C63.4858 160.636 61.6287 159.174 61.9443 157.933C62.6466 155.178 65.3222 146.048 67.2778 142.578L67.3411 142.467C67.4244 142.321 67.3739 142.135 67.228 142.052C67.0827 141.967 66.8966 142.019 66.8133 142.165L66.7482 142.28C64.7622 145.803 62.0622 155.008 61.355 157.784C60.9397 159.414 62.9665 160.972 63.6755 161.459C63.4396 161.929 62.888 163.025 62.2696 164.233C61.5046 165.726 61.535 166.462 62.5353 170.801C63.5168 175.054 70.2843 197.222 70.3524 197.445C70.3925 197.574 70.5129 197.659 70.6436 197.659Z" fill="white"/>
<path d="M57.6621 179.395C57.7041 179.395 57.7473 179.386 57.7886 179.368C57.9412 179.298 58.0081 179.117 57.9388 178.965C52.9932 168.139 54.8363 164.242 55.9382 161.914C56.1297 161.509 56.2951 161.159 56.4101 160.814C56.463 160.655 56.3766 160.483 56.2179 160.429C56.0568 160.375 55.8859 160.463 55.833 160.621C55.7296 160.931 55.5715 161.266 55.3885 161.653C54.2416 164.077 52.3225 168.134 57.3861 179.217C57.4365 179.329 57.5466 179.395 57.6621 179.395Z" fill="black"/>
<path d="M44.6508 168.998C44.7645 168.998 44.8734 168.935 44.9257 168.826C44.9378 168.8 46.1528 166.258 47.2425 163.641C47.3069 163.486 47.234 163.308 47.0789 163.243C46.9245 163.181 46.7463 163.252 46.6812 163.407C45.597 166.01 44.3893 168.539 44.3766 168.564C44.3042 168.715 44.368 168.897 44.5194 168.97C44.5626 168.989 44.607 168.998 44.6508 168.998Z" fill="black"/>
<path d="M43.2492 155.134C42.0117 151.257 40.1959 140.777 39.7836 136.899C39.3714 133.021 41.6815 127.575 38.9591 124.11C36.236 120.644 34.503 118.911 33.7605 117.178C33.0174 115.445 31.285 115.198 30.3771 116.931C29.4692 118.664 30.8727 121.717 32.9347 123.862C27.9015 120.644 27.4893 121.799 25.9216 119.324C24.3533 116.848 21.3001 110.494 19.3195 110.66C17.6692 108.432 15.7719 109.669 15.4417 112.723C14.4512 112.64 13.5439 114.951 14.2037 118.416C11.8108 119.819 12.0589 124.935 15.4417 128.813C18.8245 132.692 25.2606 135.002 26.6635 138.138C28.0663 141.273 30.3765 159.674 30.3765 159.674L43.2492 155.134Z" fill="white"/>
<path d="M30.377 159.977C30.4111 159.977 30.4452 159.971 30.4786 159.96L43.3507 155.421C43.5057 155.367 43.589 155.199 43.5392 155.042C42.292 151.135 40.4829 140.596 40.0858 136.867C39.9472 135.56 40.1248 134.072 40.3133 132.497C40.6787 129.444 41.057 126.288 39.1974 123.922C38.3595 122.856 37.6194 121.957 36.9663 121.166C35.5033 119.391 34.537 118.22 34.0396 117.059C33.6066 116.047 32.8416 115.444 31.994 115.444C31.243 115.444 30.5558 115.934 30.1077 116.789C29.2959 118.339 30.1235 120.684 31.5409 122.659C30.2421 121.914 29.3372 121.516 28.6793 121.226C27.4752 120.696 27.0246 120.497 26.1782 119.16C25.8437 118.632 25.4296 117.905 24.99 117.135C22.9054 113.48 21.0495 110.445 19.4691 110.354C18.7327 109.419 18.034 109.218 17.57 109.218C16.3709 109.218 15.4435 110.474 15.1699 112.442C14.9729 112.49 14.7369 112.614 14.5046 112.894C13.8966 113.629 13.376 115.47 13.868 118.268C13.0981 118.8 12.5928 119.697 12.4 120.879C11.9908 123.391 13.0951 126.583 15.2125 129.011C16.8087 130.842 19.013 132.289 21.145 133.689C23.4722 135.217 25.6698 136.66 26.3855 138.26C27.7537 141.319 30.0517 159.527 30.0748 159.71C30.0864 159.801 30.1381 159.882 30.2165 159.931C30.2658 159.962 30.3211 159.977 30.377 159.977ZM42.8721 154.945L30.6312 159.261C30.2864 156.558 28.2512 140.942 26.9413 138.014C26.1526 136.251 23.8826 134.76 21.4795 133.182C19.3822 131.805 17.2131 130.381 15.6716 128.614C13.6679 126.316 12.6189 123.32 13.0008 120.978C13.1784 119.891 13.6472 119.095 14.3581 118.679C14.4694 118.614 14.5271 118.486 14.5028 118.359C14.0212 115.828 14.3915 113.986 14.9735 113.284C15.0708 113.166 15.2222 113.025 15.3906 113.025C15.5457 113.025 15.7275 112.91 15.7439 112.756C15.9331 111.005 16.6676 109.828 17.57 109.828C18.0632 109.828 18.5837 110.178 19.0751 110.842C19.1377 110.926 19.238 110.975 19.3444 110.964H19.3457C20.7692 110.964 22.9912 114.86 24.4615 117.438C24.9042 118.215 25.3226 118.948 25.6643 119.487C26.6105 120.981 27.1821 121.233 28.4342 121.784C29.3627 122.193 30.6349 122.753 32.7705 124.119C32.9006 124.201 33.0721 124.173 33.1694 124.055C33.2673 123.936 33.26 123.763 33.1536 123.652C31.2849 121.709 29.7708 118.742 30.6458 117.073C30.99 116.415 31.4686 116.054 31.9934 116.054C32.5899 116.054 33.1457 116.519 33.4801 117.299C34.0122 118.54 35.0004 119.739 36.4969 121.554C37.1481 122.343 37.8858 123.238 38.7195 124.299C40.4227 126.467 40.0603 129.496 39.71 132.426C39.5173 134.036 39.3354 135.557 39.4814 136.932C39.8712 140.595 41.6194 150.804 42.8721 154.945Z" fill="black"/>
<path d="M29.9648 129.529C30.1022 129.529 30.2269 129.436 30.2603 129.296C30.6775 127.545 32.2457 124.687 33.1038 124.115C33.2436 124.022 33.2813 123.833 33.1883 123.694C33.0952 123.554 32.9067 123.516 32.7669 123.609C31.6991 124.321 30.0907 127.387 29.6692 129.155C29.6303 129.319 29.7313 129.483 29.8949 129.522C29.9174 129.527 29.9411 129.529 29.9648 129.529Z" fill="black"/>
<path d="M19.8972 127.879C20.0091 127.879 20.1161 127.818 20.1696 127.711C20.4767 127.096 24.1301 122.717 25.5226 122.252C25.6819 122.199 25.7677 122.027 25.7148 121.868C25.6619 121.709 25.4904 121.622 25.3305 121.676C23.7336 122.209 19.9598 126.772 19.626 127.439C19.5506 127.59 19.612 127.772 19.7622 127.847C19.8054 127.869 19.8516 127.879 19.8972 127.879Z" fill="black"/>
<path d="M20.6403 128.292C20.7552 128.292 20.8653 128.227 20.9169 128.116C20.9875 127.963 20.9206 127.782 20.768 127.712C19.8126 127.271 17.7111 124.577 17.1437 121.497C16.8531 119.918 16.3678 118.937 15.66 118.499C15.0045 118.092 14.2796 118.232 13.7913 118.371C13.6296 118.417 13.5365 118.586 13.5821 118.747C13.629 118.908 13.7968 118.999 13.9579 118.956C14.566 118.781 14.9923 118.801 15.3389 119.016C15.8856 119.354 16.2912 120.226 16.5454 121.607C17.1297 124.778 19.3207 127.714 20.5126 128.264C20.5545 128.283 20.5977 128.292 20.6403 128.292Z" fill="black"/>
<path d="M21.713 125.568C21.7981 125.568 21.882 125.533 21.9422 125.464C22.0523 125.337 22.0389 125.145 21.9124 125.034C20.1137 123.47 19.3767 121.19 18.7108 117.78C18.0985 114.641 16.9048 112.894 15.1644 112.588C15.0003 112.558 14.8415 112.669 14.8123 112.834C14.7832 113 14.8932 113.157 15.0586 113.186C16.5266 113.445 17.5542 115.029 18.1137 117.896C18.8045 121.436 19.5822 123.815 21.5129 125.494C21.5713 125.544 21.6418 125.568 21.713 125.568Z" fill="black"/>
<path d="M23.6114 123.424C23.6722 123.424 23.7331 123.406 23.786 123.368C23.9234 123.272 23.9562 123.082 23.8595 122.945C22.9644 121.672 21.8407 118.035 20.9377 115.113C20.2621 112.928 19.6789 111.04 19.2575 110.267C19.1766 110.119 18.9924 110.065 18.8452 110.145C18.6975 110.226 18.6433 110.41 18.7236 110.558C19.1164 111.278 19.7184 113.228 20.3569 115.292C21.3208 118.41 22.4123 121.943 23.3627 123.295C23.4211 123.379 23.5154 123.424 23.6114 123.424Z" fill="black"/>
<path d="M43.7867 154.153C45.0029 156.434 45.7064 160.132 45.4589 160.462C45.2114 160.793 36.1855 161.527 30.0286 165.935C28.6257 166.595 28.1776 160.095 28.3965 159.343C28.9742 157.362 43.0436 153.328 43.7867 154.153Z" fill="black"/>
<path d="M78.125 165.753C78.1961 165.753 78.2667 165.729 78.3244 165.679C78.3524 165.655 81.1247 163.248 82.4145 162.389C82.5537 162.296 82.592 162.107 82.499 161.967C82.406 161.828 82.2181 161.79 82.0776 161.883C80.7562 162.763 78.0411 165.12 77.9261 165.22C77.7997 165.33 77.7863 165.522 77.8964 165.649C77.9559 165.718 78.0405 165.753 78.125 165.753Z" fill="white"/>
<path d="M68.1037 164.517C68.1815 164.517 68.2593 164.487 68.3189 164.428C68.4375 164.309 68.4375 164.116 68.3189 163.998C67.1569 162.836 65.6725 161.945 64.6898 161.355C64.446 161.209 64.2368 161.084 64.0775 160.981C63.9364 160.889 63.7479 160.929 63.6567 161.069C63.5655 161.21 63.6056 161.398 63.7461 161.489C63.9103 161.597 64.1255 161.725 64.3767 161.876C65.3338 162.45 66.7799 163.319 67.8884 164.427C67.948 164.487 68.0258 164.517 68.1037 164.517Z" fill="white"/>
<path d="M76.941 121.302C77.2621 118.302 79.627 115.228 82.4345 117.021C84.876 118.58 85.6191 122.778 83.385 124.768C82.4339 125.615 80.8942 126.011 79.6075 125.759C77.4458 125.335 76.7233 123.335 76.941 121.302Z" fill="#F2AC30"/>
<path d="M39.6638 72.0976C35.5433 71.0225 22.3721 68.5135 15.4733 67.0802C8.57385 65.6464 1.04751 64.6606 0.0624008 65.1094C-0.92271 65.557 10.0077 79.3552 15.1151 84.8201C16.8171 85.9846 19.1467 83.835 19.1467 83.835C23.9847 88.8523 29.4502 90.7338 30.346 90.9132C31.2423 91.0919 31.6905 85.5376 31.7798 82.2217C31.8692 78.907 31.2812 78.2612 34.0194 76.9362C42.5315 72.8133 39.6638 72.0976 39.6638 72.0976Z" fill="#316AFF"/>
<path d="M30.3466 91.2166C30.4804 91.2166 30.6026 91.1278 30.6397 90.9928C30.6841 90.8305 30.5886 90.6633 30.4268 90.6195C29.9775 90.4559 28.3423 87.8077 27.1486 85.8739C25.8655 83.7961 24.6536 81.8325 23.9318 81.1107C22.5715 79.7504 10.0387 71.1952 4.71915 67.5947L30.7722 77.9347C30.9279 77.9961 31.1048 77.9201 31.1675 77.7644C31.2295 77.6081 31.1529 77.4318 30.9972 77.3698L2.32692 65.9912C2.17673 65.9303 2.00401 66.0009 1.93712 66.1499C1.87084 66.2982 1.93348 66.4734 2.07881 66.5457C2.96419 67.0152 22.0802 80.1183 23.5031 81.5407C24.1751 82.2126 25.4247 84.2363 26.6329 86.1932C28.7084 89.5547 29.6795 91.0451 30.2681 91.2057C30.2931 91.213 30.3198 91.2166 30.3466 91.2166Z" fill="black"/>
<path d="M18.6098 84.4972C18.6724 84.4972 18.735 84.4783 18.7892 84.4388L18.9199 84.3427C20.7569 82.9995 23.044 81.3236 23.5803 81.5972C23.7305 81.672 23.9123 81.6112 23.9883 81.461C24.0637 81.3108 24.0023 81.1284 23.8521 81.053C23.0245 80.6401 21.3857 81.7863 18.5611 83.8514L18.4304 83.9469C18.2948 84.046 18.265 84.2363 18.3641 84.3719C18.4237 84.454 18.5161 84.4972 18.6098 84.4972Z" fill="black"/>
<path d="M106.539 21.121C104.086 21.121 101.801 20.148 100.059 18.351C99.2855 17.479 98.7005 16.321 98.3475 15.067C97.0535 14.955 95.8105 14.509 94.7135 13.75C92.8005 12.426 91.5095 10.259 91.1725 7.80696C90.7915 4.76696 91.8395 2.89697 93.4815 0.388965C93.6325 0.158965 93.9435 0.0939834 94.1735 0.244983C94.4045 0.395983 94.4685 0.705969 94.3185 0.936969C92.7575 3.31897 91.8185 4.91898 92.1635 7.67498C92.4615 9.84498 93.5995 11.762 95.2825 12.927C96.1425 13.523 97.1065 13.896 98.1125 14.034C97.9015 12.822 97.9055 11.572 98.1605 10.44C98.6415 8.30296 99.9105 6.74096 101.828 5.92296C102.99 5.42796 104.213 5.55998 105.103 6.27498C106.125 7.09498 106.557 8.53598 106.259 10.128C105.747 12.222 103.382 14.26 100.752 14.898C100.296 15.002 99.8375 15.064 99.3845 15.087C99.6985 16.076 100.178 16.981 100.791 17.673C102.425 19.358 104.629 20.221 106.962 20.111C109.423 19.985 111.709 18.806 113.234 16.875C113.405 16.658 113.72 16.622 113.937 16.792C114.153 16.963 114.19 17.277 114.02 17.494C112.316 19.652 109.763 20.969 107.014 21.109C106.855 21.118 106.696 21.121 106.539 21.121ZM103.232 6.62596C102.906 6.62596 102.564 6.69796 102.221 6.84496C100.187 7.71196 99.4205 9.39897 99.1355 10.661C98.8915 11.744 98.9035 12.947 99.1315 14.095C99.5925 14.087 100.06 14.031 100.525 13.925C102.774 13.38 104.866 11.619 105.283 9.91799C105.507 8.72199 105.208 7.64199 104.478 7.05599C104.122 6.77099 103.693 6.62596 103.232 6.62596Z" fill="black"/>
<path d="M66.9456 60.2C64.8966 60.2 63.3926 58.57 63.0206 55.948L60.1206 35.461C59.8766 33.739 60.1956 32.314 61.0426 31.34C62.1726 30.037 64.1296 29.765 66.2856 30.633L85.4766 38.362C87.3686 39.124 88.5266 40.365 88.7376 41.855C88.9486 43.345 88.1816 44.859 86.5756 46.116L70.2846 58.873C69.1766 59.739 68.0216 60.2 66.9456 60.2ZM63.8936 31.123C63.0166 31.123 62.2916 31.424 61.7966 31.994C61.1546 32.733 60.9106 33.914 61.1106 35.319L64.0106 55.806C64.3116 57.93 65.4086 59.199 66.9446 59.199C67.7946 59.199 68.7366 58.813 69.6676 58.084L85.9586 45.327C87.2696 44.3 87.9056 43.115 87.7466 41.994C87.5876 40.872 86.6486 39.911 85.1016 39.288L65.9106 31.559C65.1916 31.27 64.5136 31.123 63.8936 31.123Z" fill="#F2AC30"/>
</svg>
